<svg width="55" height="55" viewBox="0 0 55 55" fill="none" xmlns="http://www.w3.org/2000/svg">
<g clip-path="url(#clip0_380_1069)">
<path d="M27.5037 23.918C25.5325 23.918 23.9239 25.5267 23.9239 27.4979C23.9239 29.4691 25.5325 31.0777 27.5037 31.0777C29.4749 31.0777 31.0835 29.4691 31.0835 27.4979C31.0835 25.5267 29.4749 23.918 27.5037 23.918ZM38.2405 27.4979C38.2405 26.0155 38.2539 24.5465 38.1708 23.0667C38.0874 21.348 37.6953 19.8226 36.4386 18.5657C35.1791 17.3062 33.6563 16.9168 31.9375 16.8336C30.4551 16.7503 28.9862 16.7637 27.5064 16.7637C26.024 16.7637 24.555 16.7503 23.0753 16.8336C21.3565 16.9168 19.8311 17.3089 18.5743 18.5657C17.3148 19.8253 16.9254 21.348 16.8421 23.0667C16.7588 24.5491 16.7723 26.0181 16.7723 27.4979C16.7723 28.9776 16.7588 30.4493 16.8421 31.929C16.9254 33.6477 17.3174 35.1731 18.5743 36.43C19.8338 37.6895 21.3565 38.079 23.0753 38.1622C24.5577 38.2454 26.0267 38.232 27.5064 38.232C28.9888 38.232 30.4578 38.2454 31.9375 38.1622C33.6563 38.079 35.1817 37.6868 36.4386 36.43C37.6981 35.1705 38.0874 33.6477 38.1708 31.929C38.2567 30.4493 38.2405 28.9803 38.2405 27.4979ZM27.5037 33.0059C24.4556 33.0059 21.9957 30.546 21.9957 27.4979C21.9957 24.4498 24.4556 21.9898 27.5037 21.9898C30.5518 21.9898 33.0118 24.4498 33.0118 27.4979C33.0118 30.546 30.5518 33.0059 27.5037 33.0059ZM33.2374 23.0506C32.5257 23.0506 31.9509 22.4759 31.9509 21.7642C31.9509 21.0526 32.5257 20.4779 33.2374 20.4779C33.949 20.4779 34.5237 21.0526 34.5237 21.7642C34.5239 21.9332 34.4909 22.1006 34.4263 22.2568C34.3617 22.4129 34.267 22.5548 34.1475 22.6743C34.0279 22.7938 33.8861 22.8886 33.7299 22.9531C33.5738 23.0177 33.4064 23.0508 33.2374 23.0506Z" fill="white" fill-opacity="0.8"/>
</g>
<defs>
<clipPath id="clip0_380_1069">
<rect width="27.5" height="27.5" fill="white" transform="translate(13.75 13.75)"/>
</clipPath>
</defs>
</svg>
